<svg xmlns="http://www.w3.org/2000/svg" xmlns:xlink="http://www.w3.org/1999/xlink" width="400" height="400" viewBox="0 0 400 400"><g data-name="icon" fill="#40b4c9" data="id:7955269" transform="translate(16.326527466427716, 16.326744670804977) scale(3.673472533572284)">
  
 <path d="m3.2969 62.258c-1.2695 0-2.2969-1.0273-2.2969-2.2969 0-1.2695 1.0273-2.2969 2.2969-2.2969h24.211c1.2695 0 2.2969 1.0273 2.2969 2.2969 0 1.2695-1.0273 2.2969-2.2969 2.2969h-11.75c2.3711 6.6367 6.625 12.379 12.109 16.594 6.1289 4.707 13.801 7.5039 22.133 7.5039 9.0469 0 17.312-3.2969 23.672-8.75 5.7969-4.9727 10.004-11.742 11.77-19.445h-18.73l-8.6055 13.23c-0.28125 0.49609-0.74609 0.88672-1.3398 1.0625-1.2109 0.35938-2.4883-0.32812-2.8516-1.543l-10.801-35.777-6.5664 10.098c-0.39062 0.71875-1.1484 1.207-2.0234 1.207h-29.414c-1.2695 0-2.2969-1.0273-2.2969-2.2969s1.0273-2.2969 2.2969-2.2969h4.7539c1.8438-9.0977 6.6992-17.102 13.484-22.926 7.1641-6.1484 16.477-9.8633 26.648-9.8633 9.3711 0 18.008 3.1523 24.914 8.4531 6.6016 5.0703 11.617 12.109 14.164 20.238h7.6289c1.2695 0 2.2969 1.0273 2.2969 2.2969s-1.0273 2.2969-2.2969 2.2969h-24.211c-1.2695 0-2.2969-1.0273-2.2969-2.2969s1.0273-2.2969 2.2969-2.2969h11.75c-2.3711-6.6367-6.625-12.379-12.109-16.594-6.1289-4.707-13.801-7.5039-22.133-7.5039-9.0469 0-17.312 3.2969-23.672 8.75-5.7969 4.9727-10.004 11.742-11.77 19.445h18.73l8.6797-13.344c0.69141-1.0625 2.1055-1.3633 3.168-0.67188 0.47266 0.30859 0.79688 0.76172 0.94922 1.2656h0.003906l10.801 35.777 6.6719-10.258c0.4375-0.67578 1.1719-1.0391 1.9219-1.043v-0.007812h29.414c1.2695 0 2.2969 1.0273 2.2969 2.2969s-1.0273 2.2969-2.2969 2.2969h-4.7539c-1.8438 9.0977-6.6992 17.102-13.484 22.926-7.1641 6.1484-16.477 9.8633-26.648 9.8633-9.3711 0-18.008-3.1523-24.914-8.4531-6.6016-5.0703-11.617-12.109-14.164-20.238h-7.6289z"/>

  </g></svg>